<!DOCTYPE svg PUBLIC "-//W3C//DTD SVG 1.1//EN" "http://www.w3.org/Graphics/SVG/1.1/DTD/svg11.dtd">
<!-- Uploaded to: SVG Repo, www.svgrepo.com, Transformed by: SVG Repo Mixer Tools -->
<svg fill="#ffffff" width="800px" height="800px" viewBox="0 0 24 24" xmlns="http://www.w3.org/2000/svg" stroke="#ffffff">
<g id="SVGRepo_bgCarrier" stroke-width="0"/>
<g id="SVGRepo_tracerCarrier" stroke-linecap="round" stroke-linejoin="round"/>
<g id="SVGRepo_iconCarrier">
<path d="M1,8A1,1,0,0,1,2,7H9.586L7.293,4.707A1,1,0,1,1,8.707,3.293l4,4a1,1,0,0,1,0,1.414l-4,4a1,1,0,1,1-1.414-1.414L9.586,9H2A1,1,0,0,1,1,8Zm21,7H14.414l2.293-2.293a1,1,0,0,0-1.414-1.414l-4,4a1,1,0,0,0,0,1.414l4,4a1,1,0,0,0,1.414-1.414L14.414,17H22a1,1,0,0,0,0-2Z"/>
</g>
</svg>